<svg xmlns="http://www.w3.org/2000/svg" viewBox="0 0 295.57 54.58"><defs><style>.cls-1{fill:#231815;}.cls-2{fill:#172e59;}.cls-3{fill:#fff;}.cls-4{fill:#d80c18;}</style></defs><g id="レイヤー_2" data-name="レイヤー 2"><g id="テキスト"><path class="cls-1" d="M86.39,22.17v7.09H79V22.17ZM76.08,33.71H79V32.15h7.42v8.43h2.92V32.15h7.62v1.56h2.92V19.28H89.31V14.49H86.39v4.79H76.08ZM96.93,22.17v7.09H89.31V22.17Z"/><path class="cls-1" d="M113.91,31.62v4.84h-7.6V31.62Zm-10.32-2.53V40.55h2.72V38.94H116.6V29.09Zm15-13.93V40.55h2.84V17.69h3.7a48.41,48.41,0,0,1-3.09,7.59c3.81,3.09,3.81,6.45,3.81,7.26,0,2-.72,2.5-2,2.5h-1.81l.36,2.84h2A4,4,0,0,0,127,37.3a5.21,5.21,0,0,0,1.87-4.23,12.36,12.36,0,0,0-3.59-8.4c1.61-3.36,1.81-3.75,3.17-7.15V15.16Zm-15.43,4.17h2.09a29.82,29.82,0,0,1,.8,5.51h-3.58v2.53h15.07V24.84h-3.4a52,52,0,0,0,1.14-5.51h1.76V16.8h-5.54V14.49H108.7V16.8h-5.53Zm9.46,0a52.74,52.74,0,0,1-1.12,5.51h-2.78a37.92,37.92,0,0,0-.89-5.51Z"/><path class="cls-1" d="M154.46,27.65c-.39-.64-.78-1.34-1.48-2.34-3.33.42-4.59.47-14.74,1l-.3-2.69c.58,0,1,0,3.28-.09a28.34,28.34,0,0,0,2-4.2h-5.25V16.69h7.76V14.6h2.92v2.09h8V19.3H146.31a39.92,39.92,0,0,1-2.09,4.15c3-.09,4.62-.14,7.12-.34-.64-.8-1-1.19-1.55-1.8l2.14-1.37A33.7,33.7,0,0,1,157,26.06ZM133,15.19a23.5,23.5,0,0,1,4.23,2.56l-1.7,2.44a19.14,19.14,0,0,0-4.17-2.83Zm-1.5,7.45a18.35,18.35,0,0,1,4.54,2.59l-1.7,2.39a22.35,22.35,0,0,0-4.31-2.7Zm5.57,8.79a43.66,43.66,0,0,1-4.87,9l-2-2.37a35,35,0,0,0,4.67-8.48Zm10.45-3.53v12h-2.75v-12Zm5.2-.25V37c0,.17,0,.67.42.67h.64c.39,0,.44-.17.5-.64,0-.28.11-1.62.14-3l2.53.67a26.35,26.35,0,0,1-.48,4.53,1.45,1.45,0,0,1-1.58,1.26h-3.17A1.48,1.48,0,0,1,150.17,39V27.65Zm-10.29,0c-.16,6.48-1,9.79-4.7,13l-2.22-2.11c3.39-2.51,4.11-4.95,4.2-10.9Z"/><path class="cls-1" d="M173.68,22.92V25h-4.39V22.92Zm-4-3.56a21.83,21.83,0,0,1,2.2,1.25v.06h-5.28V36.13h2.64V31.34h4.39v4.54h2.59V31.34h4.5v1.37c0,.44-.05.8-.69.8h-2.73l.5,2.62h3.28c1.23,0,2.26-.42,2.26-2.31V20.67h-5.87v-.06a23.26,23.26,0,0,0,5.17-2.86V15.44H166.42v2.31h4.65Zm4,7.73v2h-4.39v-2Zm7.09-4.17V25h-4.5V22.92Zm0,4.17v2h-4.5v-2Zm-2.31-9.34v.05a22.71,22.71,0,0,1-3.78,2,36.47,36.47,0,0,0-3.11-2v-.05Zm-19.77-1.17a38.49,38.49,0,0,1,4,5.09l2.42-1.87a29.42,29.42,0,0,0-4.2-5ZM158.41,28h3v7.2A16.23,16.23,0,0,1,158,37.66l1.51,3.11a19.08,19.08,0,0,0,4-4A5.62,5.62,0,0,0,165.92,39a10.23,10.23,0,0,0,3.92,1h14.27l.58-2.76H170.15a8.86,8.86,0,0,1-3.64-.89,3.76,3.76,0,0,1-2.34-3.17V25.23h-5.76Z"/><path class="cls-1" d="M200,21.45a17,17,0,0,1-1.84,3.5l-2.78-1.61c.33-.42.47-.62.78-1.06h-3.39v2.28a23.34,23.34,0,0,0,3.81,4.7l-1.76,2.5a14.67,14.67,0,0,1-2-3.11h0V40.52H190.1V27.67H190a25.09,25.09,0,0,1-3.23,7l-1.27-3.5a27,27,0,0,0,4.17-8.9h-3.62V19.53h4v-5h2.64v5h3.39v2.75h.06c.75-1.25,1.5-2.75,2.53-6.84l2.89.42c-.17.77-.39,1.64-.75,2.86H203v-4.2h2.75v4.2h5.87v2.73h-5.87v3.89h6.42v2.75h-5.53a21.07,21.07,0,0,0,6,7.29l-1.45,3.06a21.14,21.14,0,0,1-5.36-7.18h-.06v9.26H203V31.34h-.06a23.06,23.06,0,0,1-6.23,6.9l-1.8-2.53a22.56,22.56,0,0,0,7.31-7.62h-6.09V25.34H203V21.45Z"/><path class="cls-1" d="M236.85,18.91h3V21.7h-8.34a40.55,40.55,0,0,0,2.17,12.06c.33.78,1.56,3.29,2.53,3.29s1.45-3.2,1.56-4.18l2.55,1.45c-.38,2.14-1.14,6.23-3.64,6.23-2.69,0-4.53-3.2-5.2-4.48-2.42-4.7-2.61-9.81-2.78-14.37H213.94V18.91h14.65c-.06-1.47-.14-4-.17-4.42h3c0,1.42,0,2.45,0,4.42h5v-.05a27.38,27.38,0,0,0-4.14-2.45L234,14.24a28.14,28.14,0,0,1,4.47,2.65ZM213.94,36.74l1.39-.14c.66-.11,3.78-.5,4.5-.61V27.93h-5.42V25.17h13.4v2.76h-5.12v7.7c3.2-.47,4.9-.81,6-1v2.61c-4.5,1-10.92,1.95-14.26,2.37Z"/><path class="cls-1" d="M249.15,22V22a27.19,27.19,0,0,0,5.73-5.22A30.09,30.09,0,0,0,260.66,22V22Zm17.55,17.1a40.6,40.6,0,0,0-6.43-8l-2.36,1.45a34,34,0,0,1,3.28,4c-4.28.25-5.62.27-11.35.41.87-1.58,1.62-3.31,3-6.39h14.49v-2.7H242.25v2.7h7.15A43.07,43.07,0,0,1,246.73,37c-1.34,0-3.42,0-4,0l.41,2.9c4.23,0,5.17-.09,19.75-1.06.72,1.14.8,1.25,1.14,1.89ZM247.45,24.67h14.77V23.09a46.25,46.25,0,0,0,4.48,2.47l1.78-2.78c-5.43-2.11-10-5.23-12-8.45h-3.2c-2.36,3.58-7.56,7-12,8.56l1.64,2.67a29.12,29.12,0,0,0,4.59-2.39Z"/><path class="cls-1" d="M276.55,40.61h-2.84V29.87a19.69,19.69,0,0,1-3.36,2.59l-1.26-2.84a17.79,17.79,0,0,0,7.57-8.12h-7.18V18.78h4.23V14.44h2.84v4.34h3.28V21.5c0,.59-2.23,3.92-2.81,4.7a19.47,19.47,0,0,0,3.89,3.42l-1.36,2.64a22.56,22.56,0,0,1-3-2.92Zm9.51-26.17H289v7.87h5.95v3H289V36.71h6.59v3H279.05v-3h7V25.28h-5.82v-3h5.82Z"/><circle class="cls-2" cx="27.29" cy="27.29" r="27.25"/><path class="cls-3" d="M53.58,20.25c-.21-.78-.45-1.54-.72-2.27l.08,0c.27.73.51,1.5.71,2.27Z"/><path class="cls-3" d="M1,20.25l-.07,0c.2-.77.45-1.54.71-2.27l.08,0C1.45,18.71,1.21,19.47,1,20.25Z"/><path class="cls-3" d="M49.47,11.53l-.06-.09c-.46-.64-1-1.27-1.47-1.87L48,9.52c.49.57,1,1.17,1.41,1.78h.08a.62.62,0,0,1,0,.13Z"/><path class="cls-3" d="M5.3,11.27l-.07,0c.38-.52.79-1,1.21-1.54l.07.05C6.09,10.23,5.68,10.75,5.3,11.27Z"/><path class="cls-3" d="M43.49,5.43A26.94,26.94,0,0,0,36,1.51h0v0h.09a27.23,27.23,0,0,1,7.47,3.92Z"/><path class="cls-3" d="M1.72,18l-.08,0a27.07,27.07,0,0,1,3.59-6.73l.08-.11v.18c0,.52.41,1.05,1.22,1.55l0,0,0,0a28.1,28.1,0,0,0-1.64,3.46l-.08,0a30.07,30.07,0,0,1,1.63-3.44c-.77-.49-1.17-1-1.21-1.52A26.56,26.56,0,0,0,1.72,18Z"/><path class="cls-3" d="M1.3,35.63A27.49,27.49,0,0,1,0,28.83v-.18l.09.16a7.24,7.24,0,0,0,3,2.61h0v0c.06.5.15,1,.25,1.53l-.08,0c-.1-.51-.18-1-.25-1.52A7.51,7.51,0,0,1,.14,29a26.36,26.36,0,0,0,1.24,6.6Z"/><path class="cls-3" d="M.11,26.13H0a26.64,26.64,0,0,1,.9-5.9l0-.09.05.08A5,5,0,0,0,3.27,22h0v0c-.09.48-.16,1-.22,1.46H3c.06-.48.13-1,.21-1.43A5.24,5.24,0,0,1,1,20.34,26.83,26.83,0,0,0,.11,26.13Z"/><path class="cls-3" d="M6.51,9.73l-.07-.05A28.08,28.08,0,0,1,11,5.36l0,0,0,0a7.83,7.83,0,0,0,1,.53l.05,0,0,0A24.84,24.84,0,0,0,9.66,8.43l-.06,0A25.25,25.25,0,0,1,12,5.94a7.38,7.38,0,0,1-.94-.5A27.25,27.25,0,0,0,6.51,9.73Z"/><path class="cls-3" d="M52.86,18a27.15,27.15,0,0,0-3.4-6.46A2.43,2.43,0,0,1,48.17,13a28.27,28.27,0,0,1,1.6,3.38l-.08,0A27.13,27.13,0,0,0,48.08,13l0,0,0,0c.8-.48,1.24-1,1.3-1.49v-.1l.06.08A27.5,27.5,0,0,1,52.94,18Z"/><path class="cls-3" d="M54.47,26.13a26.83,26.83,0,0,0-.87-5.79,5.24,5.24,0,0,1-2.22,1.71c.08.47.15.95.21,1.43h-.08c-.06-.48-.13-1-.22-1.46v0h0a5,5,0,0,0,2.27-1.78l.05-.08,0,.09a26.64,26.64,0,0,1,.9,5.9Z"/><path class="cls-3" d="M27.29,54.58V54.5a22.59,22.59,0,0,0,13.19-4.3h0c1-.25,1.87-.53,2.69-.82l.27-.1-.24.17A27.14,27.14,0,0,1,27.29,54.58Zm13.24-4.31a23,23,0,0,1-9,3.9,27,27,0,0,0,11.39-4.62C42.19,49.81,41.38,50.05,40.53,50.27Z"/><path class="cls-3" d="M53.28,35.63l-.08,0A26.82,26.82,0,0,0,54.44,29a7.59,7.59,0,0,1-2.9,2.48c-.07.49-.15,1-.25,1.52l-.08,0c.1-.52.19-1,.25-1.53v0h0a7.21,7.21,0,0,0,3-2.61l.08-.16v.18A27.49,27.49,0,0,1,53.28,35.63Z"/><path class="cls-3" d="M48.65,44.27l-.06-.05a27.14,27.14,0,0,0,3.2-5.08,13.49,13.49,0,0,1-3.37,2c-.26.48-.53,1-.79,1.39l-.07,0c.26-.44.53-.91.79-1.4h0a12.86,12.86,0,0,0,3.52-2.17l.15-.15L52,39A27.08,27.08,0,0,1,48.65,44.27Z"/><path class="cls-3" d="M27.29,54.58a27.14,27.14,0,0,1-15.93-5.13l-.24-.17.27.1c.82.29,1.73.57,2.69.82h0a22.64,22.64,0,0,0,13.2,4.3Zm-15.65-5A27,27,0,0,0,23,54.17a23,23,0,0,1-9-3.9C13.2,50.05,12.39,49.81,11.64,49.55Z"/><path class="cls-3" d="M5.93,44.27A27.08,27.08,0,0,1,2.63,39l-.09-.19.15.15a12.86,12.86,0,0,0,3.52,2.17h0c.26.48.52.95.79,1.4l-.07,0c-.26-.44-.53-.91-.79-1.39a13.31,13.31,0,0,1-3.37-2A27.14,27.14,0,0,0,6,44.22Z"/><path class="cls-3" d="M47.94,9.57a28,28,0,0,0-4.43-4.13,7.38,7.38,0,0,1-.94.5,25.46,25.46,0,0,1,2.37,2.39l-.07.05A24.92,24.92,0,0,0,42.47,6l0,0,0,0a7.22,7.22,0,0,0,1-.53l0,0,0,0A27.1,27.1,0,0,1,48,9.52Z"/><path class="cls-3" d="M51.51,23.49q-.09-.7-.21-1.41a14,14,0,0,1-1.47.6l0-.07c.55-.2,1.06-.41,1.5-.62l0,0V22c.09.48.16,1,.22,1.46Z"/><path class="cls-3" d="M47.63,42.57l-.07,0c.24-.41.49-.85.74-1.3-.5.22-1,.43-1.58.63l0-.08c.58-.21,1.15-.44,1.68-.67l.11,0-.06.11C48.16,41.66,47.89,42.13,47.63,42.57Z"/><path class="cls-3" d="M4.89,16.36l-.08,0a28.3,28.3,0,0,1,1.65-3.47l0,0,0,0a14,14,0,0,0,3.77,1.47h0l0,0c-.08.2-.16.42-.24.65L10,15c.07-.21.15-.42.22-.61a14.18,14.18,0,0,1-3.71-1.44A28.28,28.28,0,0,0,4.89,16.36Z"/><path class="cls-3" d="M3.29,33c-.1-.52-.19-1-.25-1.54l0-.08.07,0a15.94,15.94,0,0,0,1.49.73l0,.07a15.46,15.46,0,0,1-1.41-.69c.06.47.14,1,.24,1.45Z"/><path class="cls-3" d="M9.66,8.43l-.06,0A26.08,26.08,0,0,1,12.05,5.9l0,0h0a17.55,17.55,0,0,0,2.49.84h.06l0,0c-.17.2-.34.42-.53.67l-.06,0c.17-.23.33-.43.48-.62A17.32,17.32,0,0,1,12.09,6,25.55,25.55,0,0,0,9.66,8.43Z"/><path class="cls-3" d="M3.07,23.49H3c.06-.48.13-1,.22-1.46V22l0,0a15.91,15.91,0,0,0,1.5.62l0,.07a13.14,13.14,0,0,1-1.47-.6Q3.16,22.79,3.07,23.49Z"/><path class="cls-3" d="M27.29,54.58V54.5A15.22,15.22,0,0,0,36.8,51h0c1.3-.21,2.53-.47,3.68-.76l.21-.06-.18.13A22.7,22.7,0,0,1,27.29,54.58ZM36.84,51a16.05,16.05,0,0,1-7.13,3.33,22.9,22.9,0,0,0,10.6-4C39.22,50.6,38.06,50.84,36.84,51Z"/><path class="cls-3" d="M27.29,54.58a22.7,22.7,0,0,1-13.24-4.31l-.18-.13.21.06c1.15.29,2.38.55,3.68.76h0a15.19,15.19,0,0,0,9.51,3.53Zm-13-4.25a22.9,22.9,0,0,0,10.6,4A16.05,16.05,0,0,1,17.74,51C16.52,50.84,15.36,50.6,14.27,50.33Z"/><path class="cls-3" d="M49.69,16.36A28.82,28.82,0,0,0,48.1,13a14.76,14.76,0,0,1-3.73,1.41l.21.58-.07,0c-.08-.21-.16-.42-.23-.62l0,0h.05A15.14,15.14,0,0,0,48.1,12.9l0,0,0,0a28.81,28.81,0,0,1,1.62,3.41Z"/><path class="cls-3" d="M7,42.57c-.27-.45-.54-.92-.79-1.4l-.06-.11.11,0c.53.23,1.09.46,1.68.67l0,.08c-.55-.2-1.08-.41-1.58-.63.24.45.49.89.74,1.3Z"/><path class="cls-3" d="M44.87,8.38A25.68,25.68,0,0,0,42.49,6a17.78,17.78,0,0,1-2.41.81l.46.59-.06,0L40,6.79l0,0H40a17.55,17.55,0,0,0,2.49-.84h0l0,0a25.14,25.14,0,0,1,2.41,2.43Z"/><path class="cls-3" d="M10.07,15,10,15c.08-.23.16-.44.24-.65v0h0c.45.12.94.23,1.45.35l0,.08c-.5-.11-1-.23-1.42-.35C10.23,14.59,10.15,14.79,10.07,15Z"/><path class="cls-3" d="M44.51,15c-.07-.2-.15-.39-.22-.58-.43.11-.88.22-1.36.32l0-.08,1.4-.33h0v0c.08.2.16.41.23.62Z"/><path class="cls-3" d="M14.08,7.46l-.06,0,.52-.67,0,0h0l1.57.36,0,.08c-.54-.11-1.06-.23-1.55-.36Z"/><path class="cls-3" d="M27.29,54.58A15.29,15.29,0,0,1,17.73,51l-.12-.1.15,0c1.55.25,3.19.44,4.87.56h0l0,0c1.44,2,3,3,4.63,3ZM17.9,51.06a15.31,15.31,0,0,0,8.43,3.4A6.82,6.82,0,0,1,22.6,51.6C21,51.48,19.4,51.3,17.9,51.06Z"/><path class="cls-3" d="M27.29,54.58V54.5c1.63,0,3.19-1,4.63-3l0,0h0c1.68-.12,3.32-.31,4.87-.56l.15,0-.12.1A15.29,15.29,0,0,1,27.29,54.58Zm4.69-3a6.82,6.82,0,0,1-3.73,2.86,15.31,15.31,0,0,0,8.43-3.4C35.18,51.3,33.6,51.48,32,51.6Z"/><path class="cls-3" d="M27.33,54.58h0c-1.66,0-3.24-1-4.7-3l-.05-.07h.09c1.52.11,3.09.17,4.66.17h0Zm-4.62-3c1.42,1.9,2.94,2.87,4.54,2.89V51.77C25.72,51.77,24.19,51.71,22.71,51.61Z"/><path class="cls-3" d="M27.29,54.58h0V51.69h0c1.57,0,3.14-.06,4.66-.17H32l-.05.07C30.53,53.57,29,54.58,27.29,54.58Zm0-2.81V54.5c1.6,0,3.12-1,4.54-2.89C30.39,51.71,28.86,51.77,27.33,51.77Z"/><path class="cls-3" d="M51.45,31.53v-.08a30.09,30.09,0,0,0,0-8h.08a30.57,30.57,0,0,1,.24,3.81,30.88,30.88,0,0,1-.27,4.09,7.14,7.14,0,0,0,2.89-2.56c0-.52,0-1,0-1.53s0-.74,0-1.16h.08c0,.43,0,.81,0,1.17s0,1,0,1.54v0a7.36,7.36,0,0,1-3,2.64Z"/><path class="cls-3" d="M3.13,31.53l-.07,0a7.36,7.36,0,0,1-3-2.64v0c0-.52,0-1,0-1.54s0-.74,0-1.17H.11c0,.42,0,.8,0,1.16s0,1,0,1.53A7.25,7.25,0,0,0,3,31.38a30.75,30.75,0,0,1,0-7.9h.08a30.09,30.09,0,0,0,.05,8Z"/><path class="cls-3" d="M50,32.22l0-.07a14.41,14.41,0,0,0,1.47-.72,31.64,31.64,0,0,0,.28-4.14,30.29,30.29,0,0,0-.24-3.8h.08a30.24,30.24,0,0,1-.05,8v0h0A14.59,14.59,0,0,1,50,32.22Z"/><path class="cls-3" d="M46.52,30.62h-.08c.09-1.1.14-2.22.14-3.32s-.06-2.45-.17-3.67v0h0a30.28,30.28,0,0,0,3.37-1l0,.07a29,29,0,0,1-3.34,1c.11,1.21.17,2.43.17,3.64S46.61,29.51,46.52,30.62Z"/><path class="cls-3" d="M8.06,30.62c-.09-1.11-.14-2.23-.14-3.33s.06-2.43.17-3.64a29,29,0,0,1-3.34-1l0-.07a30.28,30.28,0,0,0,3.37,1h0v0C8.06,24.84,8,26.07,8,27.29s.05,2.22.14,3.32Z"/><path class="cls-3" d="M4.54,32.22a14.59,14.59,0,0,1-1.48-.73H3v0a30.24,30.24,0,0,1,0-8h.08a30.29,30.29,0,0,0-.24,3.8,31.64,31.64,0,0,0,.28,4.14,15.51,15.51,0,0,0,1.47.72Z"/><path class="cls-3" d="M46.52,30.62h-.08c.09-1.1.14-2.22.14-3.32s-.06-2.42-.17-3.62A66.56,66.56,0,0,1,37.55,25c0,.76,0,1.52,0,2.26,0,.41,0,.83,0,1.29H37.5c0-.46,0-.88,0-1.29,0-.75,0-1.52,0-2.29v0h0a67.25,67.25,0,0,0,8.93-1.38h0v.05c.11,1.21.17,2.45.17,3.67S46.61,29.51,46.52,30.62Z"/><path class="cls-3" d="M8.06,30.62c-.09-1.11-.14-2.23-.14-3.33s.06-2.46.17-3.67v-.05h0A67.25,67.25,0,0,0,17.07,25h0v0c0,.77,0,1.54,0,2.29,0,.43,0,.87,0,1.29H17c0-.42,0-.86,0-1.29,0-.74,0-1.5,0-2.26a66.56,66.56,0,0,1-8.86-1.36C8.06,24.87,8,26.09,8,27.29s.05,2.22.14,3.32Z"/><path class="cls-3" d="M37.58,28.58H37.5c0-.46,0-.88,0-1.29,0-.74,0-1.5,0-2.25-3.22.3-6.63.45-10.14.46v2.41h-.08v-2.5h0c3.54,0,7-.15,10.22-.45h0V25c0,.76,0,1.54,0,2.29C37.59,27.7,37.59,28.12,37.58,28.58Z"/><path class="cls-3" d="M17,28.58c0-.42,0-.86,0-1.29,0-.75,0-1.52,0-2.29V25h0c3.24.3,6.68.45,10.22.45h0v2.5h-.08V25.5c-3.51,0-6.93-.16-10.14-.46,0,.76,0,1.52,0,2.25,0,.43,0,.87,0,1.29Z"/><path class="cls-3" d="M6.28,41.23l-.1,0A12.62,12.62,0,0,1,2.64,39v0A26.84,26.84,0,0,1,1.3,35.63l.08,0A26.05,26.05,0,0,0,2.7,38.94a12.22,12.22,0,0,0,3.4,2.12A28.89,28.89,0,0,1,3.29,33l.08,0a28.94,28.94,0,0,0,2.86,8.15Z"/><path class="cls-3" d="M48.3,41.23l.05-.1A28.72,28.72,0,0,0,51.21,33l.08,0a28.89,28.89,0,0,1-2.81,8.06,12.22,12.22,0,0,0,3.4-2.12A26.64,26.64,0,0,0,53.2,35.6l.08,0A26.84,26.84,0,0,1,52,39v0a12.62,12.62,0,0,1-3.54,2.18Z"/><path class="cls-3" d="M46.72,41.86l0-.08c.58-.21,1.14-.43,1.67-.66A29.06,29.06,0,0,0,51.21,33l.08,0a29,29,0,0,1-2.87,8.17h0C47.87,41.42,47.3,41.64,46.72,41.86Z"/><path class="cls-3" d="M44.25,40.49l-.08,0a35.08,35.08,0,0,0,1.9-6.9v0h0A29,29,0,0,0,50,32.15l0,.07a29.28,29.28,0,0,1-3.9,1.37A34.39,34.39,0,0,1,44.25,40.49Z"/><path class="cls-3" d="M10.33,40.49a34.39,34.39,0,0,1-1.89-6.9,29.28,29.28,0,0,1-3.9-1.37l0-.07a29.28,29.28,0,0,0,3.9,1.37h0v0a34.4,34.4,0,0,0,1.9,6.9Z"/><path class="cls-3" d="M7.86,41.86c-.59-.22-1.15-.44-1.68-.68h0A28.78,28.78,0,0,1,3.29,33l.08,0a29.17,29.17,0,0,0,2.85,8.14c.53.23,1.09.45,1.67.66Z"/><path class="cls-3" d="M44.25,40.49l-.08,0a34.48,34.48,0,0,0,1.89-6.84,57.93,57.93,0,0,1-8.92,1.68c-.13,1.08-.28,2.15-.45,3.18l-.08,0c.17-1,.33-2.11.45-3.2v0h0a56,56,0,0,0,9-1.7h.07v.06A35.08,35.08,0,0,1,44.25,40.49Z"/><path class="cls-3" d="M10.33,40.49a35.08,35.08,0,0,1-1.9-6.92v-.06h.06a56.4,56.4,0,0,0,9,1.7h0v0c.12,1.1.28,2.17.45,3.2l-.08,0c-.17-1-.32-2.09-.45-3.18a57.93,57.93,0,0,1-8.92-1.68,34.48,34.48,0,0,0,1.89,6.84Z"/><path class="cls-3" d="M36.69,38.48l-.08,0c.17-1,.32-2.08.45-3.15a85,85,0,0,1-9.73.54v1.92h-.08v-2h0a86.22,86.22,0,0,0,9.81-.55h0v.05C37,36.36,36.86,37.44,36.69,38.48Z"/><path class="cls-3" d="M17.89,38.48c-.17-1-.33-2.11-.45-3.21v-.05h.05a86.22,86.22,0,0,0,9.81.55h0v2h-.08V35.85a85,85,0,0,1-9.73-.54c.13,1.08.28,2.14.45,3.15Z"/><path class="cls-3" d="M46.06,33.62v-.06c.16-1,.28-2,.37-3h.08c-.09,1-.21,1.94-.36,2.89A30.31,30.31,0,0,0,50,32.15l0,.07a30.08,30.08,0,0,1-3.92,1.38Z"/><path class="cls-3" d="M8.52,33.62l-.06,0a30.08,30.08,0,0,1-3.92-1.38l0-.07a29.76,29.76,0,0,0,3.84,1.36c-.15-.95-.27-1.92-.36-2.89h.08c.09,1,.21,2,.37,3Z"/><path class="cls-3" d="M17.52,35.31h-.05a57.45,57.45,0,0,1-9-1.7h0v0c-.16-1-.28-2-.37-2.95h.08c.09,1,.21,2,.37,2.92a57.88,57.88,0,0,0,8.92,1.69c-.24-2.15-.39-4.38-.43-6.64h.08c0,2.27.19,4.52.44,6.68Z"/><path class="cls-3" d="M37.06,35.31v-.05c.25-2.16.4-4.41.44-6.68h.08c0,2.26-.19,4.49-.43,6.64a57.88,57.88,0,0,0,8.92-1.69c.16-1,.28-1.93.37-2.92h.08c-.09,1-.21,2-.37,2.95v0h0a57.45,57.45,0,0,1-9,1.7Z"/><path class="cls-3" d="M27.33,35.85h0a84.15,84.15,0,0,1-9.82-.55h0v0c-.25-2.16-.4-4.41-.44-6.69h.08c0,2.26.19,4.5.43,6.65a87.49,87.49,0,0,0,9.74.54V27.91h.08Z"/><path class="cls-3" d="M27.29,35.85h0V27.91h.08v7.86a87.49,87.49,0,0,0,9.74-.54c.24-2.15.39-4.39.43-6.65h.08c0,2.28-.19,4.53-.44,6.69v0h0A84.15,84.15,0,0,1,27.29,35.85Z"/><path class="cls-3" d="M14.27,50.33l-.21,0c-1-.25-1.87-.53-2.69-.83h0a27.21,27.21,0,0,1-5.43-5.18L6,44.22a27.57,27.57,0,0,0,5.41,5.16c.76.27,1.59.53,2.47.76A26,26,0,0,1,7,42.57l.07,0a26,26,0,0,0,7.07,7.67Z"/><path class="cls-3" d="M40.31,50.33l.17-.13a25.9,25.9,0,0,0,7.08-7.67l.07,0a26.19,26.19,0,0,1-6.92,7.57c.88-.23,1.71-.49,2.47-.76a27.57,27.57,0,0,0,5.41-5.16l.06.05a27.21,27.21,0,0,1-5.43,5.18h0c-.82.3-1.73.58-2.69.83Z"/><path class="cls-3" d="M17.9,51.06l-.15,0c-1.3-.21-2.54-.47-3.69-.76h0A26.08,26.08,0,0,1,7,42.57l.07,0a26,26,0,0,0,7.07,7.67c1.1.28,2.28.53,3.52.73a24.29,24.29,0,0,1-6.21-8,35.81,35.81,0,0,1-3.54-1l0-.08a36,36,0,0,0,3.55,1.06h0v0A24,24,0,0,0,17.78,51Z"/><path class="cls-3" d="M36.68,51.06,36.8,51a24,24,0,0,0,6.31-8.11v0h0a36,36,0,0,0,3.55-1.06l0,.08a35.24,35.24,0,0,1-3.55,1,24.16,24.16,0,0,1-6.2,8c1.24-.2,2.42-.45,3.52-.73a26,26,0,0,0,7.07-7.67l.07,0a26.21,26.21,0,0,1-7.1,7.7h0c-1.15.29-2.39.55-3.69.76Z"/><path class="cls-3" d="M22.71,51.61h-.09c-1.68-.12-3.32-.31-4.87-.56h0a24,24,0,0,1-6.33-8.14l0-.07.08,0a59.26,59.26,0,0,0,7.81,1.32h0v0a24.49,24.49,0,0,0,3.38,7.35ZM17.77,51c1.52.25,3.12.43,4.77.56a24.88,24.88,0,0,1-3.33-7.28,57.89,57.89,0,0,1-7.7-1.3A24.07,24.07,0,0,0,17.77,51Z"/><path class="cls-3" d="M31.87,51.61l.05-.07a24.49,24.49,0,0,0,3.38-7.35v0h0a59.26,59.26,0,0,0,7.81-1.32l.08,0,0,.07A24,24,0,0,1,36.85,51h0c-1.55.25-3.19.44-4.87.56Zm3.5-7.37A24.88,24.88,0,0,1,32,51.52c1.65-.13,3.25-.31,4.77-.56a24,24,0,0,0,6.26-8A57.89,57.89,0,0,1,35.37,44.24Z"/><path class="cls-3" d="M27.29,51.77h0V44.56h0a78.13,78.13,0,0,0,8-.4h.06l0,.06A24.7,24.7,0,0,1,32,51.59h0C30.44,51.71,28.87,51.77,27.29,51.77Zm0-7.12v7c1.55,0,3.1-.06,4.61-.17a24.44,24.44,0,0,0,3.34-7.27C32.71,44.51,30,44.64,27.33,44.65Z"/><path class="cls-3" d="M27.33,51.77h0c-1.58,0-3.15-.06-4.67-.17h0a24.58,24.58,0,0,1-3.38-7.38l0-.06h.06a78,78,0,0,0,8,.4h0Zm-4.69-.25c1.51.11,3.06.17,4.61.17v-7c-2.71,0-5.38-.14-7.95-.4A24.44,24.44,0,0,0,22.64,51.52Z"/><path class="cls-3" d="M11.51,42.94l-.09,0c-1.28-.32-2.48-.68-3.56-1.06l0-.08c1,.38,2.22.72,3.47,1-.37-.75-.71-1.53-1-2.33l.08,0c.32.83.68,1.63,1.06,2.4Z"/><path class="cls-3" d="M43.07,42.94l0-.08c.38-.77.74-1.57,1.06-2.4l.08,0c-.32.8-.66,1.58-1,2.33,1.25-.32,2.42-.66,3.47-1l0,.08c-1.08.38-2.28.74-3.56,1.06Z"/><path class="cls-3" d="M19.3,44.25h-.06a59.14,59.14,0,0,1-7.82-1.32h0v0c-.38-.76-.74-1.57-1.07-2.4l.08,0c.32.82.67,1.62,1.05,2.38a56.73,56.73,0,0,0,7.73,1.31,47.39,47.39,0,0,1-1.3-5.67l.08,0a50.48,50.48,0,0,0,1.31,5.73Z"/><path class="cls-3" d="M35.28,44.25l0-.06a51,51,0,0,0,1.31-5.73l.08,0a48.3,48.3,0,0,1-1.3,5.67,56.73,56.73,0,0,0,7.73-1.31c.38-.76.73-1.56,1.05-2.38l.08,0c-.33.83-.69,1.63-1.07,2.4v0h0a59.14,59.14,0,0,1-7.82,1.32Z"/><path class="cls-3" d="M27.33,44.65h0a78.29,78.29,0,0,1-8-.41h0v0a48.37,48.37,0,0,1-1.32-5.73l.08,0a47.88,47.88,0,0,0,1.31,5.7,76.62,76.62,0,0,0,8,.4V37.77h.08Z"/><path class="cls-3" d="M27.29,44.65h0V37.77h.08v6.79a76.62,76.62,0,0,0,8-.4,47.88,47.88,0,0,0,1.31-5.7l.08,0a49.31,49.31,0,0,1-1.32,5.73v0h0A78.29,78.29,0,0,1,27.29,44.65Z"/><path class="cls-3" d="M51.3,22.08v0a28.73,28.73,0,0,0-1.6-5.67l.08,0A29.22,29.22,0,0,1,51.36,22a4.85,4.85,0,0,0,2.21-1.73A23.56,23.56,0,0,0,52.86,18l.08,0c.27.73.51,1.5.71,2.27v0h0a5,5,0,0,1-2.3,1.81Z"/><path class="cls-3" d="M3.28,22.08l0,0a5,5,0,0,1-2.3-1.81h0v0c.2-.77.45-1.54.71-2.27l.08,0c-.27.72-.5,1.48-.71,2.25A4.85,4.85,0,0,0,3.22,22a29.22,29.22,0,0,1,1.59-5.63l.08,0A28.93,28.93,0,0,0,3.29,22Z"/><path class="cls-3" d="M8.46,21.38H8.38A34.38,34.38,0,0,1,10,15l.07,0A34.75,34.75,0,0,0,8.46,21.38Z"/><path class="cls-3" d="M4.75,22.68c-.57-.2-1.07-.41-1.52-.62h0v0a29.12,29.12,0,0,1,1.6-5.69l.08,0A29.55,29.55,0,0,0,3.29,22c.44.21.94.41,1.48.61Z"/><path class="cls-3" d="M49.83,22.68l0-.07c.54-.2,1-.4,1.47-.61a28.43,28.43,0,0,0-1.59-5.64l.08,0A28.92,28.92,0,0,1,51.37,22v0h0C50.9,22.27,50.39,22.48,49.83,22.68Z"/><path class="cls-3" d="M46.12,21.38A34.75,34.75,0,0,0,44.51,15l.07,0a34.77,34.77,0,0,1,1.62,6.39Z"/><path class="cls-3" d="M17.48,19.67H17.4c.15-1.36.34-2.7.56-4a57.51,57.51,0,0,1-6.24-.95l0-.08a57.22,57.22,0,0,0,6.27,1h0v0C17.82,17,17.63,18.29,17.48,19.67Z"/><path class="cls-3" d="M8.46,21.38H8.38A34.38,34.38,0,0,1,10,15l.07,0A34.75,34.75,0,0,0,8.46,21.38Z"/><path class="cls-3" d="M46.12,21.38A34.75,34.75,0,0,0,44.51,15l.07,0a34.77,34.77,0,0,1,1.62,6.39Z"/><path class="cls-3" d="M37.1,19.67c-.15-1.36-.34-2.7-.57-4v0h0a57.92,57.92,0,0,0,6.34-1l0,.08a57.67,57.67,0,0,1-6.31,1c.23,1.28.41,2.61.56,3.95Z"/><path class="cls-3" d="M17.48,19.67H17.4c.15-1.38.34-2.73.57-4v0h0a91.31,91.31,0,0,0,9.28.45h0v3h-.08v-3A90,90,0,0,1,18,15.7C17.82,17,17.63,18.31,17.48,19.67Z"/><path class="cls-3" d="M37.1,19.67c-.15-1.35-.34-2.67-.56-4-2.89.29-6,.44-9.18.44h0v3h-.08v-3h.11c3.21,0,6.31-.15,9.21-.44h0v0c.23,1.3.42,2.64.57,4Z"/><path class="cls-3" d="M46.41,23.67v-.05c-.08-.74-.17-1.5-.29-2.24h.08c.12.73.21,1.47.28,2.2a29.55,29.55,0,0,0,3.33-1l0,.07a29.56,29.56,0,0,1-3.37,1Z"/><path class="cls-3" d="M8.17,23.67H8.12a29.56,29.56,0,0,1-3.37-1l0-.07a29,29,0,0,0,3.33,1c.07-.74.16-1.48.28-2.2h.08c-.12.74-.22,1.49-.29,2.24Z"/><path class="cls-3" d="M37.47,25v0c0-1.81-.18-3.6-.37-5.33h.08c.19,1.72.31,3.5.37,5.29a66.14,66.14,0,0,0,8.85-1.36c-.07-.74-.16-1.48-.28-2.21h.08c.12.74.22,1.5.29,2.25v0h0A67.42,67.42,0,0,1,37.52,25Z"/><path class="cls-3" d="M17.11,25h-.05a67.42,67.42,0,0,1-8.94-1.38h0v0c.07-.76.17-1.51.29-2.25h.08c-.12.73-.21,1.47-.28,2.21A66.14,66.14,0,0,0,17,25c0-1.79.18-3.57.37-5.29h.08c-.19,1.73-.32,3.52-.37,5.33Z"/><path class="cls-3" d="M27.29,25.5h0V19.11h.08v6.3c3.51,0,6.92-.15,10.14-.45-.06-1.79-.18-3.58-.37-5.29h.08c.19,1.73.32,3.53.37,5.34v0h0C34.27,25.34,30.83,25.5,27.29,25.5Z"/><path class="cls-3" d="M27.33,25.5h0c-3.54,0-7-.16-10.23-.46h0v0c0-1.81.18-3.61.37-5.34h.08c-.19,1.71-.31,3.5-.37,5.29,3.22.3,6.63.45,10.14.45v-6.3h.08Z"/><path class="cls-3" d="M6.51,12.93l0,0c-.83-.52-1.25-1.07-1.25-1.62v-.06h0c.38-.52.79-1,1.21-1.54l.07.05c-.42.5-.83,1-1.2,1.53h0v0c0,.52.4,1,1.18,1.53A27.42,27.42,0,0,1,9.6,8.38l.06,0A26.7,26.7,0,0,0,6.53,12.9Z"/><path class="cls-3" d="M48.1,13l0,0a27,27,0,0,0-3.21-4.58l.07-.05a27.09,27.09,0,0,1,3.19,4.55c.77-.47,1.2-1,1.27-1.45-.46-.64-.95-1.26-1.46-1.86L48,9.52c.52.6,1,1.23,1.47,1.87v0h0C49.41,12,49,12.48,48.14,13Z"/><path class="cls-3" d="M44.29,14.43v0a28.36,28.36,0,0,0-3.8-7l.06,0a28.29,28.29,0,0,1,3.8,7,14.9,14.9,0,0,0,3.72-1.41,26.44,26.44,0,0,0-3.19-4.54l.07-.05a27.12,27.12,0,0,1,3.21,4.59l0,0,0,0a15.3,15.3,0,0,1-3.81,1.45Z"/><path class="cls-3" d="M10.3,14.39h0a14.51,14.51,0,0,1-3.79-1.47l0,0,0,0A26.83,26.83,0,0,1,9.6,8.38l.06,0a27.28,27.28,0,0,0-3.11,4.43,14.45,14.45,0,0,0,3.7,1.44A28.3,28.3,0,0,1,14,7.41l.06,0a28.55,28.55,0,0,0-3.77,6.9Z"/><path class="cls-3" d="M18.39,13.92l-.08,0a40.32,40.32,0,0,1,1.78-6.13c-1.42-.16-2.75-.36-3.95-.6l0-.08c1.21.24,2.55.45,4,.6h.05l0,0A40.51,40.51,0,0,0,18.39,13.92Z"/><path class="cls-3" d="M11.72,14.74l-1.46-.36h0l0,0A28.19,28.19,0,0,1,14,7.41l.06,0a28.23,28.23,0,0,0-3.75,6.86l1.41.34Z"/><path class="cls-3" d="M42.93,14.75l0-.08c.47-.1.93-.21,1.35-.32a28.37,28.37,0,0,0-3.78-6.92l.06,0a28.19,28.19,0,0,1,3.81,7l0,0,0,0Z"/><path class="cls-3" d="M36.19,13.92A41.69,41.69,0,0,0,34.4,7.75l0,0h0c1.45-.15,2.82-.36,4-.61l0,.08c-1.22.24-2.56.45-4,.61a40.32,40.32,0,0,1,1.78,6.13Z"/><path class="cls-3" d="M18.39,13.92l-.08,0a40.62,40.62,0,0,1,1.8-6.18v0h0a65.16,65.16,0,0,0,7.14.37h0v5.51h-.08V8.15a69.48,69.48,0,0,1-7.08-.37A40.46,40.46,0,0,0,18.39,13.92Z"/><path class="cls-3" d="M36.19,13.92a40.46,40.46,0,0,0-1.78-6.14,69.48,69.48,0,0,1-7.08.37v5.42h-.08V8.06h0a65.16,65.16,0,0,0,7.14-.37h0v0a40.62,40.62,0,0,1,1.8,6.18Z"/><path class="cls-3" d="M36.54,15.71v0c-.11-.6-.22-1.19-.34-1.76l.08,0c.12.56.23,1.14.33,1.73a57.3,57.3,0,0,0,6.31-1l0,.08a58.5,58.5,0,0,1-6.35,1Z"/><path class="cls-3" d="M18,15.7h0a57.64,57.64,0,0,1-6.29-1l0-.08a56.76,56.76,0,0,0,6.24.95c.1-.58.21-1.16.33-1.71l.08,0c-.12.56-.23,1.15-.34,1.74Z"/><path class="cls-3" d="M27.36,16.15h-.11V13.57h.08v2.5h0c3.19,0,6.28-.15,9.16-.44-.1-.58-.21-1.16-.33-1.71l.08,0c.12.57.23,1.16.34,1.76v.05h0C33.67,16,30.57,16.15,27.36,16.15Z"/><path class="cls-3" d="M27.33,16.15h0A91.31,91.31,0,0,1,18,15.7H18v0c.11-.6.22-1.19.34-1.75l.08,0c-.12.55-.23,1.12-.33,1.7a89.51,89.51,0,0,0,9.19.45v-2.5h.08Z"/><path class="cls-3" d="M42.49,6l0,0a24.1,24.1,0,0,0-6.63-4.17l-.06,0,0,0A.4.4,0,0,0,36,1.46V1.41l.05,0a27.16,27.16,0,0,1,7.5,3.93l0,0,0,0a7.83,7.83,0,0,1-1,.53ZM35.93,1.74a23.89,23.89,0,0,1,6.58,4.14,8,8,0,0,0,.93-.49,27.18,27.18,0,0,0-7.39-3.87A.53.53,0,0,1,35.93,1.74Z"/><path class="cls-3" d="M12.09,6l0,0a7.83,7.83,0,0,1-1-.53L11,5.4l0,0a27.36,27.36,0,0,1,7.51-3.93l.05,0v.05a.46.46,0,0,0,.15.27l0,0-.05,0A24.1,24.1,0,0,0,12.11,6Zm-.95-.59a8,8,0,0,0,.93.49,23.89,23.89,0,0,1,6.58-4.14.53.53,0,0,1-.12-.22A27.18,27.18,0,0,0,11.14,5.39Z"/><path class="cls-3" d="M14.59,6.81h0A15.82,15.82,0,0,1,12.06,6l-.05,0,0,0a23.82,23.82,0,0,1,6.66-4.18h0l0,0a2.78,2.78,0,0,0,.93.48l.08,0-.07,0a19.85,19.85,0,0,0-5.08,4.51Zm-2.44-.89a16.56,16.56,0,0,0,2.41.8,20,20,0,0,1,5-4.47,2.49,2.49,0,0,1-.86-.45A24,24,0,0,0,12.15,5.92Z"/><path class="cls-3" d="M40,6.81l0,0a19.85,19.85,0,0,0-5.08-4.51l-.07,0,.08,0a2.78,2.78,0,0,0,.93-.48l0,0h0A23.82,23.82,0,0,1,42.53,5.9l0,0,0,0A15.63,15.63,0,0,1,40,6.8ZM35,2.25a20,20,0,0,1,5,4.47,16,16,0,0,0,2.4-.8A23.91,23.91,0,0,0,35.87,1.8,2.59,2.59,0,0,1,35,2.25Z"/><path class="cls-3" d="M16.14,7.17c-.55-.12-1.08-.24-1.58-.37H14.5l0,0a20,20,0,0,1,5.1-4.53h0a16.6,16.6,0,0,0,3.07.6h.07l0,.06a18.66,18.66,0,0,0-2.17,3.83l-.07,0a18.08,18.08,0,0,1,2.13-3.79,16.2,16.2,0,0,1-3-.6,19.55,19.55,0,0,0-5,4.45c.47.12,1,.24,1.51.35Z"/><path class="cls-3" d="M38.49,7.16l0-.08c.52-.11,1-.22,1.46-.34a19.55,19.55,0,0,0-5-4.45,16.2,16.2,0,0,1-3,.6A18.64,18.64,0,0,1,34,6.67L34,6.7A18.11,18.11,0,0,0,31.8,2.88l0-.06h.07a16.6,16.6,0,0,0,3.07-.6h0A20,20,0,0,1,40,6.74l0,0H40C39.54,6.93,39,7,38.49,7.16Z"/><path class="cls-3" d="M20.61,6.71l-.07,0a18.86,18.86,0,0,1,2.17-3.85l0,0h0a40.05,40.05,0,0,0,4.54.24h0V6.46h-.08V3.14a44.08,44.08,0,0,1-4.48-.24A18,18,0,0,0,20.61,6.71Z"/><path class="cls-3" d="M34,6.7a17.92,17.92,0,0,0-2.15-3.8,44.08,44.08,0,0,1-4.48.24V6.42h0V6.5h-.11V3.05h0a40.05,40.05,0,0,0,4.54-.24h0v0A18.31,18.31,0,0,1,34,6.67Z"/><path class="cls-3" d="M20.17,7.78h0c-1.44-.15-2.78-.36-4-.6l0-.08c1.2.24,2.53.44,4,.6.14-.36.28-.7.42-1l.07,0c-.14.32-.28.67-.43,1Z"/><path class="cls-3" d="M34.41,7.78v0c-.15-.37-.29-.72-.44-1l.08,0q.21.48.42,1c1.44-.16,2.79-.36,4-.61l0,.08c-1.23.25-2.59.46-4.05.61Z"/><path class="cls-3" d="M27.33,8.15h0a65.28,65.28,0,0,1-7.15-.38h-.05l0,0c.14-.37.29-.72.43-1l.07,0c-.13.3-.27.64-.41,1a66.22,66.22,0,0,0,7.05.36V6.46h.08Z"/><path class="cls-3" d="M27.29,8.15h0V6.42h.11V6.5h0V8.06a66.22,66.22,0,0,0,7.05-.36c-.14-.35-.28-.69-.42-1l.08,0c.14.33.29.68.43,1l0,0h-.05A65.28,65.28,0,0,1,27.29,8.15Z"/><path class="cls-3" d="M18.71,1.8l0,0a.51.51,0,0,1-.17-.31v0h0A27.23,27.23,0,0,1,27.29,0V.08a22.27,22.27,0,0,0-8.55,1.71Zm-.1-.3a.45.45,0,0,0,.12.21A23,23,0,0,1,23,.42,27.26,27.26,0,0,0,18.61,1.5Z"/><path class="cls-3" d="M35.87,1.8h0A22.27,22.27,0,0,0,27.29.08V0A27.23,27.23,0,0,1,36,1.43h0v0a.57.57,0,0,1-.17.31ZM31.63.42a23,23,0,0,1,4.22,1.29A.45.45,0,0,0,36,1.5,27.26,27.26,0,0,0,31.63.42Z"/><path class="cls-3" d="M34.91,2.29h0a14.47,14.47,0,0,0-7.6-2.2V0a22.24,22.24,0,0,1,8.58,1.72l.06,0,0,0a2.55,2.55,0,0,1-1,.5ZM29.75.22a15,15,0,0,1,5.17,2,2.71,2.71,0,0,0,.86-.43A22.41,22.41,0,0,0,29.75.22Z"/><path class="cls-3" d="M19.67,2.29h0a2.55,2.55,0,0,1-1-.5l0,0,.06,0A22.24,22.24,0,0,1,27.29,0V.08a14.47,14.47,0,0,0-7.6,2.2Zm-.87-.52a2.71,2.71,0,0,0,.86.43,15,15,0,0,1,5.17-2A22.41,22.41,0,0,0,18.8,1.77Z"/><path class="cls-3" d="M31.81,2.9v0C30.39,1,28.87.08,27.29.08V0a14.59,14.59,0,0,1,7.65,2.21l.07,0-.08,0a16.11,16.11,0,0,1-3.09.61ZM28.24.11a6.79,6.79,0,0,1,3.61,2.7,15.56,15.56,0,0,0,3-.58A14.78,14.78,0,0,0,28.24.11Z"/><path class="cls-3" d="M22.77,2.9h0a16.11,16.11,0,0,1-3.09-.61l-.08,0,.07,0A14.59,14.59,0,0,1,27.29,0V.08c-1.58,0-3.1.94-4.51,2.8Zm-3-.67a15.56,15.56,0,0,0,3,.58A6.79,6.79,0,0,1,26.34.11,14.74,14.74,0,0,0,19.76,2.23Z"/><path class="cls-3" d="M27.33,3.14h0a40,40,0,0,1-4.55-.25h-.07l0-.06C24.14,1,25.68,0,27.29,0h0Zm-4.51-.32a40.67,40.67,0,0,0,4.43.23v-3C25.7.1,24.21,1,22.82,2.82Z"/><path class="cls-3" d="M27.29,3.14h0V0h0c1.61,0,3.15,1,4.57,2.83l.05.06h-.07A40,40,0,0,1,27.29,3.14Zm0-3.06v3a40.67,40.67,0,0,0,4.43-.23C30.37,1,28.88.1,27.33.08Z"/><path class="cls-4" d="M26,16.18c-.06-.73-.08-1.43-.13-2.48a1.64,1.64,0,0,0-.75-1.22,3,3,0,0,0-2.37.08c-.26-.35-.64-.91-.64-.91a.51.51,0,0,0-.47-.2.51.51,0,0,0-.41.31S20.52,14,20,15.22c-.46-1.24-1.2-3.47-1.2-3.47a.51.51,0,0,0-.66-.28.49.49,0,0,0-.28.65l1.46,4.18a.79.79,0,0,0,1.38,0s.74-2.18,1.18-3.27c.18.24.31.44.31.44a.57.57,0,0,0,.68.13,4,4,0,0,1,.59-.25c1.16-.42,1.38.38,1.4.6,0,.47.06,1,.09,1.43-.13.3-.5.48-1.07.48-.18,0-.76,0-.76-.38s.82-.32.85-.32a.49.49,0,0,0,.51-.48.5.5,0,0,0-.51-.5c-1.75,0-1.86,1-1.86,1.28,0,.84.71,1.4,1.77,1.4a2.7,2.7,0,0,0,1.27-.3.5.5,0,0,0,.37.14A.5.5,0,0,0,26,16.18Z"/><path class="cls-4" d="M37.72,12.25a6.3,6.3,0,0,0-3.84,1.22c0-.63-.19-.71-.52-.84a1.5,1.5,0,0,0-1.55.56l-.13.12a2.19,2.19,0,0,0-1.55-.94c-1.34-.18-1.57.6-1.6.84a1.45,1.45,0,0,0,1.25,1.54,2.83,2.83,0,0,0,1.29,0,1,1,0,0,1-1.07,1c-1.05,0-1.37-1.12-1.38-1.36A.55.55,0,0,0,28,14a.46.46,0,0,0-.4.52,2.1,2.1,0,0,0,.09.45c-.14.08-.3.18-.47.3v-6a.5.5,0,0,0-.5-.5.5.5,0,0,0-.51.5v6.93a.5.5,0,0,0,.28.44.51.51,0,0,0,.52,0l1.12-.79a2.27,2.27,0,0,0,1.87.95,1.94,1.94,0,0,0,2.09-2.08,3.35,3.35,0,0,0,0-.4,2.51,2.51,0,0,1,.45-.52c.25-.21.39,0,.39.13v2.28a.47.47,0,0,0,.48.49.52.52,0,0,0,.53-.5V14.69a5.13,5.13,0,0,1,3.86-1.47.5.5,0,0,0,.52-.49A.51.51,0,0,0,37.72,12.25Zm-6.86,1.6c-.05.14-.19.22-.84,0-.3-.08-.65-.37-.59-.53s.38-.19.78,0S30.91,13.71,30.86,13.85Z"/><path class="cls-4" d="M38.92,12.23a.54.54,0,1,0,.54.53A.54.54,0,0,0,38.92,12.23Zm.19.86L39,12.85h-.22v.24h-.1v-.66H39c.19,0,.23.1.23.2a.2.2,0,0,1-.15.21l.16.25Z"/><path class="cls-4" d="M39.14,12.63c0-.06,0-.12-.21-.12h-.2v.24H39C39.11,12.75,39.14,12.7,39.14,12.63Z"/><path class="cls-3" d="M16.19,26.16c-.44,1.95-1.54,2.93-3.28,2.93a3,3,0,0,1-2.58-1.32,5.37,5.37,0,0,1-.89-3.21,5.42,5.42,0,0,1,.89-3.21A3,3,0,0,1,12.91,20c1.54,0,2.6.87,3.19,2.61H14a1,1,0,0,0-1.07-.87,1.43,1.43,0,0,0-1.3.93,4.93,4.93,0,0,0,0,3.7,1.42,1.42,0,0,0,1.3.94c.69,0,1.12-.4,1.28-1.19Z"/><path class="cls-3" d="M16.19,26.16c-.44,1.95-1.54,2.93-3.28,2.93a3,3,0,0,1-2.58-1.32,5.37,5.37,0,0,1-.89-3.21,5.42,5.42,0,0,1,.89-3.21A3,3,0,0,1,12.91,20c1.54,0,2.6.87,3.19,2.61H14a1,1,0,0,0-1.07-.87,1.43,1.43,0,0,0-1.3.93,4.93,4.93,0,0,0,0,3.7,1.42,1.42,0,0,0,1.3.94c.69,0,1.12-.4,1.28-1.19Z"/><path class="cls-3" d="M23.4,28.84H21.64c0-.09,0-.19,0-.28V25.22h-3v3.34a2.62,2.62,0,0,0,0,.28H16.91c0-.09,0-.19,0-.28v-8a1.68,1.68,0,0,0,0-.29h1.78c0,.11,0,.21,0,.3v2.73h3V20.56a1.89,1.89,0,0,0,0-.3H23.4c0,.11,0,.21,0,.3v8A2.72,2.72,0,0,0,23.4,28.84Z"/><path class="cls-3" d="M23.4,28.84H21.64c0-.09,0-.19,0-.28V25.22h-3v3.34a2.62,2.62,0,0,0,0,.28H16.91c0-.09,0-.19,0-.28v-8a1.68,1.68,0,0,0,0-.29h1.78c0,.11,0,.21,0,.3v2.73h3V20.56a1.89,1.89,0,0,0,0-.3H23.4c0,.11,0,.21,0,.3v8A2.72,2.72,0,0,0,23.4,28.84Z"/><path class="cls-3" d="M30.43,20.26c0,.1,0,.2,0,.29V25.3A4.2,4.2,0,0,1,29.58,28,3,3,0,0,1,25,28a4.15,4.15,0,0,1-.86-2.73V20.55c0-.08,0-.18,0-.29h1.78c0,.11,0,.21,0,.29v5.09a1.79,1.79,0,0,0,.41,1.18,1.23,1.23,0,0,0,1,.48,1.18,1.18,0,0,0,1-.5,1.75,1.75,0,0,0,.41-1.16V20.55c0-.07,0-.17,0-.29Z"/><path class="cls-3" d="M30.43,20.26c0,.1,0,.2,0,.29V25.3A4.2,4.2,0,0,1,29.58,28,3,3,0,0,1,25,28a4.15,4.15,0,0,1-.86-2.73V20.55c0-.08,0-.18,0-.29h1.78c0,.11,0,.21,0,.29v5.09a1.79,1.79,0,0,0,.41,1.18,1.23,1.23,0,0,0,1,.48,1.18,1.18,0,0,0,1-.5,1.75,1.75,0,0,0,.41-1.16V20.55c0-.07,0-.17,0-.29Z"/><path class="cls-3" d="M35.15,23.37a1,1,0,0,1-.63.21H33.4v-1.7h1.1a1.09,1.09,0,0,1,.65.2.81.81,0,0,1,0,1.29Zm1,1a2.94,2.94,0,0,0,.84-.79,2.23,2.23,0,0,0,.3-1.2,1.84,1.84,0,0,0-.83-1.65,2.92,2.92,0,0,0-1.68-.45h-3a1.89,1.89,0,0,1,0,.29v8c0,.09,0,.18,0,.28h3.66a1.93,1.93,0,0,0,1.46-.6,2.3,2.3,0,0,0,.56-1.64A2.51,2.51,0,0,0,36.1,24.35ZM35.45,27a1,1,0,0,1-.69.28H33.4v-2h1.36a1,1,0,0,1,.69.28.94.94,0,0,1,.3.73A1,1,0,0,1,35.45,27Z"/><path class="cls-3" d="M35.15,23.37a1,1,0,0,1-.63.21H33.4v-1.7h1.1a1.09,1.09,0,0,1,.65.2.81.81,0,0,1,0,1.29Zm1,1a2.94,2.94,0,0,0,.84-.79,2.23,2.23,0,0,0,.3-1.2,1.84,1.84,0,0,0-.83-1.65,2.92,2.92,0,0,0-1.68-.45h-3a1.89,1.89,0,0,1,0,.29v8c0,.09,0,.18,0,.28h3.66a1.93,1.93,0,0,0,1.46-.6,2.3,2.3,0,0,0,.56-1.64A2.51,2.51,0,0,0,36.1,24.35ZM35.45,27a1,1,0,0,1-.69.28H33.4v-2h1.36a1,1,0,0,1,.69.28.94.94,0,0,1,.3.73A1,1,0,0,1,35.45,27Z"/><path class="cls-3" d="M44.72,20.26c0,.1,0,.2,0,.29V25.3A4.2,4.2,0,0,1,43.86,28a3,3,0,0,1-4.56,0,4.15,4.15,0,0,1-.85-2.73V20.55c0-.08,0-.18,0-.29h1.77c0,.11,0,.21,0,.29v5.09a1.84,1.84,0,0,0,.41,1.18,1.24,1.24,0,0,0,1,.48,1.19,1.19,0,0,0,1-.5,1.74,1.74,0,0,0,.4-1.16V20.55c0-.07,0-.17,0-.29Z"/><path class="cls-3" d="M44.72,20.26c0,.1,0,.2,0,.29V25.3A4.2,4.2,0,0,1,43.86,28a3,3,0,0,1-4.56,0,4.15,4.15,0,0,1-.85-2.73V20.55c0-.08,0-.18,0-.29h1.77c0,.11,0,.21,0,.29v5.09a1.84,1.84,0,0,0,.41,1.18,1.24,1.24,0,0,0,1,.48,1.19,1.19,0,0,0,1-.5,1.74,1.74,0,0,0,.4-1.16V20.55c0-.07,0-.17,0-.29Z"/><path class="cls-3" d="M13.18,34.87a.84.84,0,0,1-.62.27H11.14V33.29h1.42a.87.87,0,0,1,.62.26.92.92,0,0,1,.25.65A1,1,0,0,1,13.18,34.87Zm.6,1.83a3,3,0,0,0,1.12-.94,2.51,2.51,0,0,0,.47-1.51,2.56,2.56,0,0,0-.75-1.88,2.31,2.31,0,0,0-1.7-.72H9.55c0,.11,0,.21,0,.29v8a2.72,2.72,0,0,1,0,.28h1.72a2.46,2.46,0,0,1,0-.28V36.86h.82l1.38,3a1.06,1.06,0,0,1,.12.34h2Z"/><path class="cls-3" d="M13.18,34.87a.84.84,0,0,1-.62.27H11.14V33.29h1.42a.87.87,0,0,1,.62.26.92.92,0,0,1,.25.65A1,1,0,0,1,13.18,34.87Zm.6,1.83a3,3,0,0,0,1.12-.94,2.51,2.51,0,0,0,.47-1.51,2.56,2.56,0,0,0-.75-1.88,2.31,2.31,0,0,0-1.7-.72H9.55c0,.11,0,.21,0,.29v8a2.72,2.72,0,0,1,0,.28h1.72a2.46,2.46,0,0,1,0-.28V36.86h.82l1.38,3a1.06,1.06,0,0,1,.12.34h2Z"/><path class="cls-3" d="M23,31.65l-2.66,5.49V40a2.46,2.46,0,0,0,0,.28h-2a1.37,1.37,0,0,0,0-.28V37.14l-2.66-5.49h2a1.63,1.63,0,0,0,.13.39l1.48,3.16L20.84,32a1.92,1.92,0,0,0,.14-.39Z"/><path class="cls-3" d="M23,31.65l-2.66,5.49V40a2.46,2.46,0,0,0,0,.28h-2a1.37,1.37,0,0,0,0-.28V37.14l-2.66-5.49h2a1.63,1.63,0,0,0,.13.39l1.48,3.16L20.84,32a1.92,1.92,0,0,0,.14-.39Z"/><path class="cls-3" d="M30.43,31.65c0,.1,0,.2,0,.29v4.75a4.18,4.18,0,0,1-.84,2.73,3,3,0,0,1-4.56,0,4.13,4.13,0,0,1-.86-2.73V31.94c0-.08,0-.18,0-.29h1.78c0,.11,0,.21,0,.29V37a1.77,1.77,0,0,0,.41,1.18,1.23,1.23,0,0,0,1,.48,1.19,1.19,0,0,0,1-.49A1.79,1.79,0,0,0,28.68,37V31.94c0-.07,0-.17,0-.29Z"/><path class="cls-3" d="M30.43,31.65c0,.1,0,.2,0,.29v4.75a4.18,4.18,0,0,1-.84,2.73,3,3,0,0,1-4.56,0,4.13,4.13,0,0,1-.86-2.73V31.94c0-.08,0-.18,0-.29h1.78c0,.11,0,.21,0,.29V37a1.77,1.77,0,0,0,.41,1.18,1.23,1.23,0,0,0,1,.48,1.19,1.19,0,0,0,1-.49A1.79,1.79,0,0,0,28.68,37V31.94c0-.07,0-.17,0-.29Z"/><path class="cls-3" d="M37.66,33.57a2.41,2.41,0,0,0-.4,0h-2V40c0,.09,0,.18,0,.28H33.46a2.45,2.45,0,0,0,0-.27V33.54H31.63a2.24,2.24,0,0,0-.38,0V31.65h6.41Z"/><path class="cls-3" d="M37.66,33.57a2.41,2.41,0,0,0-.4,0h-2V40c0,.09,0,.18,0,.28H33.46a2.45,2.45,0,0,0,0-.27V33.54H31.63a2.24,2.24,0,0,0-.38,0V31.65h6.41Z"/><path class="cls-3" d="M44.7,31.65c0,.1,0,.2,0,.29v4.75a4.18,4.18,0,0,1-.84,2.73,3,3,0,0,1-4.57,0,4.18,4.18,0,0,1-.85-2.73V31.94c0-.08,0-.18,0-.29H40.2c0,.11,0,.21,0,.29V37a1.82,1.82,0,0,0,.41,1.18,1.24,1.24,0,0,0,1,.48,1.21,1.21,0,0,0,1-.49A1.79,1.79,0,0,0,43,37V31.94a1.89,1.89,0,0,0,0-.29Z"/><path class="cls-3" d="M44.7,31.65c0,.1,0,.2,0,.29v4.75a4.18,4.18,0,0,1-.84,2.73,3,3,0,0,1-4.57,0,4.18,4.18,0,0,1-.85-2.73V31.94c0-.08,0-.18,0-.29H40.2c0,.11,0,.21,0,.29V37a1.82,1.82,0,0,0,.41,1.18,1.24,1.24,0,0,0,1,.48,1.21,1.21,0,0,0,1-.49A1.79,1.79,0,0,0,43,37V31.94a1.89,1.89,0,0,0,0-.29Z"/></g></g></svg>